{
  "accessors": [
    {
      "bufferView": 2,
      "componentType": 5126,
      "count": 2946,
      "max": [
        7.735422611236572,
        13.524863243103027,
        6.166995048522949
      ],
      "min": [
        -7.735422611236572,
        -13.524863243103027,
        -6.166995048522949
      ],
      "type": "VEC3"
    },
    {
      "bufferView": 2,
      "byteOffset": 35352,
      "componentType": 5126,
      "count": 2946,
      "max": [
        0.9999474883079529,
        0.99996417760849,
        0.9997700452804565
      ],
      "min": [
        -0.999565839767456,
        -0.9993950128555298,
        -0.9995393753051758
      ],
      "type": "VEC3"
    },
    {
      "bufferView": 3,
      "componentType": 5126,
      "count": 2946,
      "max": [
        0.99986332654953,
        0.9999772906303406,
        0.9992570281028748,
        1.0
      ],
      "min": [
        -0.9998023509979248,
        -0.9968860745429993,
        -0.999698281288147,
        -1.0
      ],
      "type": "VEC4"
    },
    {
      "bufferView": 1,
      "componentType": 5126,
      "count": 2946,
      "max": [
        0.9980080127716064,
        0.9245314598083496
      ],
      "min": [
        0.0019920319318771362,
        0.0018453598022460938
      ],
      "type": "VEC2"
    },
    {
      "bufferView": 0,
      "componentType": 5125,
      "count": 11778,
      "type": "SCALAR"
    }
  ],
  "asset": {
    "extras": {
      "author": "lucq22 (https://sketchfab.com/lucq22)",
      "license": "CC-BY-4.0 (http://creativecommons.org/licenses/by/4.0/)",
      "source": "https://sketchfab.com/3d-models/mangrove-tree-roots-c32d977c14e04e5ebc1fbef9b6111957",
      "title": "mangrove tree roots"
    },
    "generator": "Sketchfab-12.66.0",
    "version": "2.0"
  },
  "bufferViews": [
    {
      "buffer": 0,
      "byteLength": 47112,
      "name": "floatBufferViews",
      "target": 34963
    },
    {
      "buffer": 0,
      "byteLength": 23568,
      "byteOffset": 47112,
      "byteStride": 8,
      "name": "floatBufferViews",
      "target": 34962
    },
    {
      "buffer": 0,
      "byteLength": 70704,
      "byteOffset": 70680,
      "byteStride": 12,
      "name": "floatBufferViews",
      "target": 34962
    },
    {
      "buffer": 0,
      "byteLength": 47136,
      "byteOffset": 141384,
      "byteStride": 16,
      "name": "floatBufferViews",
      "target": 34962
    }
  ],
  "buffers": [
    {
      "byteLength": 188520,
      "uri": "scene.bin"
    }
  ],
  "images": [
    {
      "uri": "textures/lambert1_baseColor.png"
    },
    {
      "uri": "textures/lambert1_normal.png"
    }
  ],
  "materials": [
    {
      "doubleSided": true,
      "name": "lambert1",
      "normalTexture": {
        "index": 1
      },
      "pbrMetallicRoughness": {
        "baseColorTexture": {
          "index": 0
        },
        "metallicFactor": 0.0,
        "roughnessFactor": 0.37796944396085813
      }
    }
  ],
  "meshes": [
    {
      "name": "tree:polySurface1_lambert1_0",
      "primitives": [
        {
          "attributes": {
            "NORMAL": 1,
            "POSITION": 0,
            "TANGENT": 2,
            "TEXCOORD_0": 3
          },
          "indices": 4,
          "material": 0,
          "mode": 4
        }
      ]
    }
  ],
  "nodes": [
    {
      "children": [
        1
      ],
      "matrix": [
        1.0,
        0.0,
        0.0,
        0.0,
        0.0,
        2.220446049250313e-16,
        -1.0,
        0.0,
        0.0,
        1.0,
        2.220446049250313e-16,
        0.0,
        0.0,
        0.0,
        0.0,
        1.0
      ],
      "name": "Sketchfab_model"
    },
    {
      "children": [
        2
      ],
      "matrix": [
        0.009999999776482582,
        0.0,
        0.0,
        0.0,
        0.0,
        0.0,
        0.009999999776482582,
        0.0,
        0.0,
        -0.009999999776482582,
        0.0,
        0.0,
        0.0,
        0.0,
        0.0,
        1.0
      ],
      "name": "b0398daceea74be3bc12f2e085c84764.fbx"
    },
    {
      "children": [
        3
      ],
      "name": "RootNode"
    },
    {
      "children": [
        4
      ],
      "matrix": [
        1.0,
        0.0,
        0.0,
        0.0,
        0.0,
        1.0,
        0.0,
        0.0,
        0.0,
        0.0,
        1.0,
        0.0,
        2.1415865421295166,
        12.738987922668457,
        -6.5057373046875,
        1.0
      ],
      "name": "tree:polySurface1"
    },
    {
      "mesh": 0,
      "name": "tree:polySurface1_lambert1_0"
    }
  ],
  "samplers": [
    {
      "magFilter": 9729,
      "minFilter": 9987,
      "wrapS": 10497,
      "wrapT": 10497
    }
  ],
  "scene": 0,
  "scenes": [
    {
      "name": "Sketchfab_Scene",
      "nodes": [
        0
      ]
    }
  ],
  "textures": [
    {
      "sampler": 0,
      "source": 0
    },
    {
      "sampler": 0,
      "source": 1
    }
  ]
}
