{
  "accessors": [
    {
      "bufferView": 2,
      "componentType": 5126,
      "count": 700,
      "max": [
        6.259449005126953,
        2.181689977645874,
        4.022336959838867
      ],
      "min": [
        -3.3153181076049805,
        -3.762744903564453,
        -0.39500099420547485
      ],
      "type": "VEC3"
    },
    {
      "bufferView": 2,
      "byteOffset": 8400,
      "componentType": 5126,
      "count": 700,
      "max": [
        0.9930955171585083,
        0.9884986877441406,
        0.9984638094902039
      ],
      "min": [
        -0.9953678250312805,
        -0.9975382685661316,
        -0.9994849562644958
      ],
      "type": "VEC3"
    },
    {
      "bufferView": 3,
      "componentType": 5126,
      "count": 700,
      "max": [
        0.9983285665512085,
        0.9963309168815613,
        0.9999895691871643,
        1.0
      ],
      "min": [
        -0.9971356391906738,
        -0.978108823299408,
        -0.9978696703910828,
        1.0
      ],
      "type": "VEC4"
    },
    {
      "bufferView": 1,
      "componentType": 5126,
      "count": 700,
      "max": [
        0.9970049858093262,
        0.9907860159873962
      ],
      "min": [
        0.007883000187575817,
        0.0012919999426230788
      ],
      "type": "VEC2"
    },
    {
      "bufferView": 0,
      "componentType": 5125,
      "count": 3612,
      "type": "SCALAR"
    }
  ],
  "asset": {
    "extras": {
      "author": "Isengrim (https://sketchfab.com/Isengrim)",
      "license": "CC-BY-SA-4.0 (http://creativecommons.org/licenses/by-sa/4.0/)",
      "source": "https://sketchfab.com/3d-models/stone-group-1-fb1bba28ee32463aae91c63a6b5951e1",
      "title": "stone_group_1"
    },
    "generator": "Sketchfab-12.68.0",
    "version": "2.0"
  },
  "bufferViews": [
    {
      "buffer": 0,
      "byteLength": 14448,
      "name": "floatBufferViews",
      "target": 34963
    },
    {
      "buffer": 0,
      "byteLength": 5600,
      "byteOffset": 14448,
      "byteStride": 8,
      "name": "floatBufferViews",
      "target": 34962
    },
    {
      "buffer": 0,
      "byteLength": 16800,
      "byteOffset": 20048,
      "byteStride": 12,
      "name": "floatBufferViews",
      "target": 34962
    },
    {
      "buffer": 0,
      "byteLength": 11200,
      "byteOffset": 36848,
      "byteStride": 16,
      "name": "floatBufferViews",
      "target": 34962
    }
  ],
  "buffers": [
    {
      "byteLength": 48048,
      "uri": "scene.bin"
    }
  ],
  "images": [
    {
      "uri": "textures/Material_baseColor.png"
    },
    {
      "uri": "textures/Material_metallicRoughness.png"
    },
    {
      "uri": "textures/Material_normal.png"
    }
  ],
  "materials": [
    {
      "name": "Material",
      "normalTexture": {
        "index": 2
      },
      "occlusionTexture": {
        "index": 1
      },
      "pbrMetallicRoughness": {
        "baseColorTexture": {
          "index": 0
        },
        "metallicRoughnessTexture": {
          "index": 1
        },
        "roughnessFactor": 0.75
      }
    }
  ],
  "meshes": [
    {
      "name": "Object_0",
      "primitives": [
        {
          "attributes": {
            "NORMAL": 1,
            "POSITION": 0,
            "TANGENT": 2,
            "TEXCOORD_0": 3
          },
          "indices": 4,
          "material": 0,
          "mode": 4
        }
      ]
    }
  ],
  "nodes": [
    {
      "children": [
        1
      ],
      "matrix": [
        1.0,
        0.0,
        0.0,
        0.0,
        0.0,
        2.220446049250313e-16,
        -1.0,
        0.0,
        0.0,
        1.0,
        2.220446049250313e-16,
        0.0,
        0.0,
        0.0,
        0.0,
        1.0
      ],
      "name": "Sketchfab_model"
    },
    {
      "children": [
        2
      ],
      "name": "28a910245823455590503035fafb8964.obj.cleaner.gles"
    },
    {
      "mesh": 0,
      "name": "Object_2"
    }
  ],
  "samplers": [
    {
      "magFilter": 9729,
      "minFilter": 9987,
      "wrapS": 10497,
      "wrapT": 10497
    }
  ],
  "scene": 0,
  "scenes": [
    {
      "name": "Sketchfab_Scene",
      "nodes": [
        0
      ]
    }
  ],
  "textures": [
    {
      "sampler": 0,
      "source": 0
    },
    {
      "sampler": 0,
      "source": 1
    },
    {
      "sampler": 0,
      "source": 2
    }
  ]
}
