{
  "accessors": [
    {
      "bufferView": 2,
      "componentType": 5126,
      "count": 63,
      "max": [
        0.22529299557209015,
        1.125846028327942,
        1.6872889995574951
      ],
      "min": [
        -1.235983967781067,
        -0.20369599759578705,
        0.41790199279785156
      ],
      "type": "VEC3"
    },
    {
      "bufferView": 2,
      "byteOffset": 756,
      "componentType": 5126,
      "count": 63,
      "max": [
        0.6330570578575134,
        0.9415900111198425,
        0.9883571267127991
      ],
      "min": [
        -0.9742373824119568,
        -0.6918546557426453,
        -0.9154998660087585
      ],
      "type": "VEC3"
    },
    {
      "bufferView": 1,
      "componentType": 5126,
      "count": 63,
      "max": [
        0.625,
        0.9360439777374268
      ],
      "min": [
        0.375,
        0.06398200243711472
      ],
      "type": "VEC2"
    },
    {
      "bufferView": 0,
      "componentType": 5125,
      "count": 180,
      "type": "SCALAR"
    },
    {
      "bufferView": 2,
      "byteOffset": 1512,
      "componentType": 5126,
      "count": 20,
      "max": [
        0.22635500133037567,
        1.125846028327942,
        1.6870349645614624
      ],
      "min": [
        -1.1630640029907227,
        -0.21073000133037567,
        0.592868983745575
      ],
      "type": "VEC3"
    },
    {
      "bufferView": 2,
      "byteOffset": 1752,
      "componentType": 5126,
      "count": 20,
      "max": [
        0.6742877960205078,
        0.9415900111198425,
        0.9883571267127991
      ],
      "min": [
        -0.6789690256118774,
        -0.686018705368042,
        -0.43552207946777344
      ],
      "type": "VEC3"
    },
    {
      "bufferView": 1,
      "byteOffset": 504,
      "componentType": 5126,
      "count": 20,
      "max": [
        0.7494770288467407,
        0.7570719718933105
      ],
      "min": [
        0.6633380055427551,
        0.5572059750556946
      ],
      "type": "VEC2"
    },
    {
      "bufferView": 0,
      "byteOffset": 720,
      "componentType": 5125,
      "count": 48,
      "type": "SCALAR"
    },
    {
      "bufferView": 2,
      "byteOffset": 1992,
      "componentType": 5126,
      "count": 2210,
      "max": [
        2.9100279808044434,
        3.3575119972229004,
        1.3639309406280518
      ],
      "min": [
        -3.433197021484375,
        -3.047456979751587,
        -0.06366600096225739
      ],
      "type": "VEC3"
    },
    {
      "bufferView": 2,
      "byteOffset": 28512,
      "componentType": 5126,
      "count": 2210,
      "max": [
        0.9993283748626709,
        0.9996262192726135,
        0.9997525811195374
      ],
      "min": [
        -0.9982519745826721,
        -0.9993366003036499,
        -1.0
      ],
      "type": "VEC3"
    },
    {
      "bufferView": 1,
      "byteOffset": 664,
      "componentType": 5126,
      "count": 2210,
      "max": [
        0.9980080127716064,
        0.9828969836235046
      ],
      "min": [
        0.0019920000340789557,
        0.001962000038474798
      ],
      "type": "VEC2"
    },
    {
      "bufferView": 0,
      "byteOffset": 912,
      "componentType": 5125,
      "count": 8736,
      "type": "SCALAR"
    },
    {
      "bufferView": 2,
      "byteOffset": 55032,
      "componentType": 5126,
      "count": 786,
      "max": [
        2.3714940547943115,
        2.7355198860168457,
        0.7388690114021301
      ],
      "min": [
        -2.745021104812622,
        -2.6795060634613037,
        0.22135299444198608
      ],
      "type": "VEC3"
    },
    {
      "bufferView": 2,
      "byteOffset": 64464,
      "componentType": 5126,
      "count": 786,
      "max": [
        0.41258808970451355,
        0.3945939540863037,
        1.0
      ],
      "min": [
        -0.5124800801277161,
        -0.5001381039619446,
        -1.0
      ],
      "type": "VEC3"
    },
    {
      "bufferView": 1,
      "byteOffset": 18344,
      "componentType": 5126,
      "count": 786,
      "max": [
        1.0756299495697021,
        1.1471799612045288
      ],
      "min": [
        -0.07027699798345566,
        0.0012730000307783484
      ],
      "type": "VEC2"
    },
    {
      "bufferView": 0,
      "byteOffset": 35856,
      "componentType": 5125,
      "count": 4224,
      "type": "SCALAR"
    },
    {
      "bufferView": 2,
      "byteOffset": 73896,
      "componentType": 5126,
      "count": 1245,
      "max": [
        1.625195026397705,
        1.125846028327942,
        1.6872889995574951
      ],
      "min": [
        -1.4962190389633179,
        -1.2289600372314453,
        0.28870201110839844
      ],
      "type": "VEC3"
    },
    {
      "bufferView": 2,
      "byteOffset": 88836,
      "componentType": 5126,
      "count": 1245,
      "max": [
        0.9973145127296448,
        0.9984705448150635,
        0.9987087845802307
      ],
      "min": [
        -0.9886800050735474,
        -0.9927657842636108,
        -0.9960159063339233
      ],
      "type": "VEC3"
    },
    {
      "bufferView": 1,
      "byteOffset": 24632,
      "componentType": 5126,
      "count": 1245,
      "max": [
        1.135105013847351,
        0.9915059804916382
      ],
      "min": [
        -0.20435099303722382,
        0.0037559999618679285
      ],
      "type": "VEC2"
    },
    {
      "bufferView": 0,
      "byteOffset": 52752,
      "componentType": 5125,
      "count": 5616,
      "type": "SCALAR"
    },
    {
      "bufferView": 2,
      "byteOffset": 103776,
      "componentType": 5126,
      "count": 129,
      "max": [
        0.24156300723552704,
        1.125846028327942,
        1.685811996459961
      ],
      "min": [
        -1.5064129829406738,
        -0.611549973487854,
        0.28870201110839844
      ],
      "type": "VEC3"
    },
    {
      "bufferView": 2,
      "byteOffset": 105324,
      "componentType": 5126,
      "count": 129,
      "max": [
        0.8833092451095581,
        0.987737774848938,
        0.9814468622207642
      ],
      "min": [
        -0.998471736907959,
        -0.9917906522750854,
        -0.994088888168335
      ],
      "type": "VEC3"
    },
    {
      "bufferView": 1,
      "byteOffset": 34592,
      "componentType": 5126,
      "count": 129,
      "max": [
        1.0,
        1.0027869939804077
      ],
      "min": [
        0.0,
        0.0
      ],
      "type": "VEC2"
    },
    {
      "bufferView": 0,
      "byteOffset": 75216,
      "componentType": 5125,
      "count": 588,
      "type": "SCALAR"
    }
  ],
  "asset": {
    "extras": {
      "author": "JalenJacobson (https://sketchfab.com/JalenJacobson)",
      "license": "CC-BY-4.0 (http://creativecommons.org/licenses/by/4.0/)",
      "source": "https://sketchfab.com/3d-models/camp-fire-b7967d9c16b64f2790b87e5ff8a80b52",
      "title": "Camp Fire"
    },
    "generator": "Sketchfab-14.22.0",
    "version": "2.0"
  },
  "bufferViews": [
    {
      "buffer": 0,
      "byteLength": 77568,
      "name": "floatBufferViews",
      "target": 34963
    },
    {
      "buffer": 0,
      "byteLength": 35624,
      "byteOffset": 77568,
      "byteStride": 8,
      "name": "floatBufferViews",
      "target": 34962
    },
    {
      "buffer": 0,
      "byteLength": 106872,
      "byteOffset": 113192,
      "byteStride": 12,
      "name": "floatBufferViews",
      "target": 34962
    }
  ],
  "buffers": [
    {
      "byteLength": 220064,
      "uri": "scene.bin"
    }
  ],
  "images": [
    {
      "uri": "textures/lambert2SG_baseColor.jpeg"
    },
    {
      "uri": "textures/lambert3SG_baseColor.jpeg"
    },
    {
      "uri": "textures/lambert5SG_baseColor.jpeg"
    },
    {
      "uri": "textures/lambert6SG_baseColor.jpeg"
    }
  ],
  "materials": [
    {
      "doubleSided": true,
      "name": "initialShadingGroup",
      "pbrMetallicRoughness": {
        "metallicFactor": 0.0,
        "roughnessFactor": 0.6
      }
    },
    {
      "doubleSided": true,
      "name": "lambert2SG",
      "pbrMetallicRoughness": {
        "baseColorTexture": {
          "index": 0
        },
        "metallicFactor": 0.7530068950624418,
        "roughnessFactor": 0.7286749587877829
      }
    },
    {
      "doubleSided": true,
      "name": "lambert3SG",
      "pbrMetallicRoughness": {
        "baseColorTexture": {
          "index": 1
        },
        "metallicFactor": 0.0,
        "roughnessFactor": 0.05346372716599855
      }
    },
    {
      "doubleSided": true,
      "name": "lambert4SG",
      "pbrMetallicRoughness": {
        "metallicFactor": 0.0,
        "roughnessFactor": 0.6
      }
    },
    {
      "doubleSided": true,
      "name": "lambert5SG",
      "pbrMetallicRoughness": {
        "baseColorTexture": {
          "index": 2
        },
        "metallicFactor": 0.0,
        "roughnessFactor": 0.25420220143193445
      }
    },
    {
      "doubleSided": true,
      "name": "lambert6SG",
      "pbrMetallicRoughness": {
        "baseColorTexture": {
          "index": 3
        },
        "metallicFactor": 0.0,
        "roughnessFactor": 0.6
      }
    }
  ],
  "meshes": [
    {
      "name": "Object_0",
      "primitives": [
        {
          "attributes": {
            "NORMAL": 1,
            "POSITION": 0,
            "TEXCOORD_0": 2
          },
          "indices": 3,
          "material": 0,
          "mode": 4
        }
      ]
    },
    {
      "name": "Object_1",
      "primitives": [
        {
          "attributes": {
            "NORMAL": 5,
            "POSITION": 4,
            "TEXCOORD_0": 6
          },
          "indices": 7,
          "material": 3,
          "mode": 4
        }
      ]
    },
    {
      "name": "Object_2",
      "primitives": [
        {
          "attributes": {
            "NORMAL": 9,
            "POSITION": 8,
            "TEXCOORD_0": 10
          },
          "indices": 11,
          "material": 1,
          "mode": 4
        }
      ]
    },
    {
      "name": "Object_3",
      "primitives": [
        {
          "attributes": {
            "NORMAL": 13,
            "POSITION": 12,
            "TEXCOORD_0": 14
          },
          "indices": 15,
          "material": 2,
          "mode": 4
        }
      ]
    },
    {
      "name": "Object_4",
      "primitives": [
        {
          "attributes": {
            "NORMAL": 17,
            "POSITION": 16,
            "TEXCOORD_0": 18
          },
          "indices": 19,
          "material": 4,
          "mode": 4
        }
      ]
    },
    {
      "name": "Object_5",
      "primitives": [
        {
          "attributes": {
            "NORMAL": 21,
            "POSITION": 20,
            "TEXCOORD_0": 22
          },
          "indices": 23,
          "material": 5,
          "mode": 4
        }
      ]
    }
  ],
  "nodes": [
    {
      "children": [
        1
      ],
      "matrix": [
        1.0,
        0.0,
        0.0,
        0.0,
        0.0,
        2.220446049250313e-16,
        -1.0,
        0.0,
        0.0,
        1.0,
        2.220446049250313e-16,
        0.0,
        0.0,
        0.0,
        0.0,
        1.0
      ],
      "name": "Sketchfab_model"
    },
    {
      "children": [
        2,
        3,
        4,
        5,
        6,
        7
      ],
      "name": "8771ee9cf63740938863ec6a14e8884c.obj.cleaner.materialmerger.gles"
    },
    {
      "mesh": 0,
      "name": "Object_2"
    },
    {
      "mesh": 1,
      "name": "Object_3"
    },
    {
      "mesh": 2,
      "name": "Object_4"
    },
    {
      "mesh": 3,
      "name": "Object_5"
    },
    {
      "mesh": 4,
      "name": "Object_6"
    },
    {
      "mesh": 5,
      "name": "Object_7"
    }
  ],
  "samplers": [
    {
      "magFilter": 9729,
      "minFilter": 9987,
      "wrapS": 10497,
      "wrapT": 10497
    }
  ],
  "scene": 0,
  "scenes": [
    {
      "name": "Sketchfab_Scene",
      "nodes": [
        0
      ]
    }
  ],
  "textures": [
    {
      "sampler": 0,
      "source": 0
    },
    {
      "sampler": 0,
      "source": 1
    },
    {
      "sampler": 0,
      "source": 2
    },
    {
      "sampler": 0,
      "source": 3
    }
  ]
}
